<svg width="24" height="24" xmlns="http://www.w3.org/2000/svg"><rect id="svg_2" x="-1" y="-1" width="26" height="26" fill="#005f6a"/><path stroke="null" d="m15.32033,10.51316l0,-3.16162c0,-1.83348 -1.48618,-3.32032 -3.32032,-3.32032c-1.83481,0 -3.32032,1.48684 -3.32032,3.32032l0,3.16162c-1.21325,0.97352 -1.9922,2.46634 -1.9922,4.1431c0,2.93384 2.37868,5.31252 5.31252,5.31252s5.31252,-2.37868 5.31252,-5.31252c0,-1.67677 -0.77895,-3.16958 -1.9922,-4.1431zm-5.31252,-3.16162c0,-1.09837 0.89383,-1.9922 1.9922,-1.9922s1.9922,0.89383 1.9922,1.9922l0,2.382c-0.61559,-0.24969 -1.28696,-0.3898 -1.9922,-0.3898s-1.3766,0.14012 -1.9922,0.3898l0,-2.382zm2.65626,7.78483l0,1.51208l-1.32813,0l0,-1.51208c-0.39578,-0.23043 -0.66407,-0.65344 -0.66407,-1.14418c0,-0.73313 0.595,-1.32813 1.32813,-1.32813s1.32813,0.595 1.32813,1.32813c0,0.49008 -0.26828,0.91375 -0.66407,1.14418l0.00001,0z" id="svg_4" fill="#ffffff"/></svg>